<mxfile host="app.diagrams.net" modified="2024-01-22T01:02:31.434Z" agent="Mozilla/5.0 (Windows NT 10.0; Win64; x64) AppleWebKit/537.36 (KHTML, like Gecko) Chrome/120.0.0.0 Safari/537.36 Edg/120.0.0.0" version="22.1.20" etag="vr_YhzPxalCbiXiF5Z9j" type="github">
  <diagram name="第 1 页" id="UXunFXDOlPToH5AsTCEy">
    <mxGraphModel>
      <root>
        <mxCell id="0" />
        <mxCell id="1" parent="0" />
      </root>
    </mxGraphModel>
  </diagram>
</mxfile>
